Coordinates
version=1
nRows=21
nColumns=12
inDegrees=yes

Units are S.I. units (second, meters, Newtons, ...)
Angles are in degrees

endheader
time	SC_y	SC_z	SC_x	AC_y	AC_z	AC_x	GH_y	GH_z	GH_yy	EL_x	PS_y
       0.0              -15.09        -0.3407          83.43          35.27         -13.89         -15.45          29.93          -2.86         -85.17          65.67          136.9
   0.01531              -15.09        -0.3403          83.42          35.28         -13.89         -15.45          29.92         -2.855         -85.17          65.67          136.9
   0.03063              -15.09        -0.3399          83.41          35.28         -13.89         -15.45           29.9         -2.849         -85.18          65.67          136.9
   0.04594              -15.09        -0.3395           83.4          35.28         -13.89         -15.44          29.89         -2.842         -85.19          65.67          136.9
   0.06126               -15.1         -0.339          83.38          35.28         -13.89         -15.44          29.87         -2.835          -85.2          65.67          136.9
   0.07657               -15.1        -0.3386          83.37          35.29         -13.89         -15.44          29.85         -2.828          -85.2          65.68          136.9
   0.09189               -15.1        -0.3381          83.35          35.29         -13.89         -15.43          29.83          -2.82         -85.21          65.68          136.9
    0.1072              -15.11        -0.3375          83.33          35.29         -13.89         -15.43          29.81         -2.812         -85.22          65.68          136.9
    0.1225              -15.11         -0.337          83.31           35.3         -13.89         -15.43          29.79         -2.803         -85.23          65.68          136.9
    0.1378              -15.11        -0.3364          83.29           35.3         -13.89         -15.42          29.77         -2.793         -85.24          65.68          136.9
    0.1531              -15.12        -0.3357          83.27          35.31         -13.89         -15.42          29.75         -2.783         -85.25          65.69          136.9
    0.1685              -15.12         -0.335          83.25          35.31         -13.89         -15.41          29.72         -2.772         -85.27          65.69          136.9
    0.1838              -15.13        -0.3342          83.22          35.32         -13.88         -15.41          29.69          -2.76         -85.28          65.69          136.9
    0.1991              -15.13        -0.3334          83.19          35.32         -13.88          -15.4          29.66         -2.747          -85.3          65.69          136.9
    0.2144              -15.14        -0.3325          83.17          35.33         -13.88          -15.4          29.63         -2.733         -85.31          65.69          136.9
    0.2297              -15.15        -0.3315          83.13          35.33         -13.88         -15.39          29.59         -2.717         -85.33           65.7          136.9
     0.245              -15.15        -0.3305           83.1          35.34         -13.88         -15.38          29.55         -2.701         -85.35           65.7          136.9
    0.2603              -15.16        -0.3293          83.06          35.35         -13.88         -15.38          29.51         -2.683         -85.37           65.7          136.9
    0.2757              -15.17        -0.3281          83.02          35.36         -13.88         -15.37          29.46         -2.663         -85.39          65.71          136.9
     0.291              -15.18        -0.3267          82.97          35.37         -13.88         -15.36          29.41         -2.641         -85.41          65.71          136.9
    0.3063              -15.19        -0.3252          82.92          35.38         -13.88         -15.35          29.35         -2.618         -85.44          65.72          136.9
